<svg xmlns="http://www.w3.org/2000/svg" viewBox="0 0 100 100" width="100" height="100"><path d="M89.390 6.758 C 79.558 12.326,60.091 32.582,43.799 54.200 C 41.443 57.325,35.444 64.464,30.868 69.587 L 30.235 70.295 29.420 69.640 C 25.626 66.591,21.718 67.309,19.832 71.400 C 18.801 73.638,19.083 74.494,21.759 77.242 L 23.456 78.983 21.460 81.242 C 15.979 87.444,15.402 88.625,16.629 91.136 C 17.852 93.639,21.437 95.815,23.316 95.195 C 24.183 94.909,29.917 88.457,31.131 86.402 C 31.614 85.583,31.776 85.621,33.734 87.012 C 37.226 89.494,39.589 89.075,41.206 85.687 C 42.490 82.997,42.131 80.836,39.951 78.119 C 39.134 77.102,39.036 76.888,39.263 76.616 C 39.408 76.442,40.473 75.175,41.629 73.800 C 42.786 72.425,44.640 70.220,45.749 68.900 C 46.858 67.580,49.178 64.880,50.906 62.900 C 54.876 58.349,61.729 49.884,64.880 45.638 C 66.211 43.844,69.280 39.883,71.700 36.836 C 82.222 23.585,88.047 15.184,90.168 10.200 C 91.290 7.565,91.579 6.435,91.194 6.192 C 90.799 5.942,90.873 5.919,89.390 6.758 M88.387 10.235 C 86.102 14.770,79.434 24.358,72.626 32.900 C 71.136 34.770,67.848 39.045,65.319 42.400 C 60.245 49.133,59.579 49.978,55.459 54.904 C 47.622 64.271,42.676 70.204,40.289 73.100 C 38.838 74.860,37.109 76.885,36.446 77.600 L 35.242 78.900 34.571 78.517 C 33.331 77.810,32.384 76.957,30.956 75.262 L 29.537 73.576 29.847 72.938 C 30.017 72.587,30.942 71.445,31.902 70.400 C 34.898 67.138,42.627 58.217,44.724 55.600 C 45.826 54.225,47.840 51.705,49.201 50.000 C 64.568 30.745,76.347 18.211,85.500 11.375 C 89.125 8.668,89.191 8.642,88.387 10.235 M78.158 20.142 C 77.118 21.329,74.885 23.875,73.195 25.800 C 69.469 30.046,64.561 36.180,63.915 37.400 C 63.682 37.840,65.145 36.307,68.306 32.800 C 77.854 22.206,80.710 18.829,80.543 18.329 C 80.366 17.797,79.910 18.143,78.158 20.142 M58.466 43.810 C 57.463 44.818,56.443 46.509,56.689 46.756 C 56.849 46.915,59.067 44.559,59.588 43.676 C 59.935 43.087,59.940 42.800,59.602 42.800 C 59.530 42.800,59.018 43.255,58.466 43.810 M52.241 51.350 C 47.337 57.450,46.248 59.000,46.866 59.000 C 47.533 59.000,55.200 49.554,55.200 48.732 C 55.200 47.935,54.463 48.588,52.241 51.350 M40.548 65.250 C 35.283 72.008,33.543 74.423,33.774 74.654 C 34.361 75.241,43.141 64.513,42.682 63.771 C 42.377 63.277,41.742 63.717,40.548 65.250 M27.692 70.114 C 29.542 71.284,29.569 71.333,28.911 72.302 C 28.089 73.514,28.267 74.123,30.112 76.423 C 32.780 79.748,35.387 80.670,37.177 78.922 C 38.104 78.018,38.225 78.022,38.986 78.983 C 40.629 81.056,40.852 82.373,39.966 84.748 C 38.878 87.663,37.253 87.953,34.236 85.770 C 27.687 81.034,21.235 75.419,20.790 74.069 C 20.305 72.601,20.914 70.954,22.290 70.007 C 24.268 68.646,25.408 68.668,27.692 70.114 M22.911 70.327 C 22.619 71.493,24.719 74.289,26.769 75.461 C 27.733 76.013,27.539 75.588,25.898 73.558 C 25.072 72.536,24.241 71.273,24.051 70.750 C 23.661 69.674,23.125 69.475,22.911 70.327 M29.600 77.871 C 29.600 78.454,32.878 81.156,34.000 81.497 L 34.500 81.650 34.000 81.098 C 31.762 78.629,29.600 77.044,29.600 77.871 M30.787 84.934 C 30.835 84.974,30.525 85.365,30.098 85.802 C 29.151 86.772,28.609 86.881,26.400 86.546 C 24.426 86.245,24.000 86.291,24.000 86.800 C 24.000 87.245,25.397 87.480,27.370 87.369 C 28.047 87.331,28.601 87.326,28.600 87.357 C 28.599 87.605,25.894 90.607,25.582 90.706 C 25.362 90.775,24.752 90.722,24.226 90.587 C 22.976 90.267,21.800 90.471,21.800 91.009 C 21.800 91.366,21.946 91.400,23.501 91.400 L 25.201 91.400 24.151 92.798 C 22.941 94.407,23.002 94.389,21.343 93.606 C 19.903 92.925,18.663 91.925,18.139 91.022 L 17.777 90.400 18.413 90.400 C 19.175 90.400,18.966 90.000,17.993 89.597 C 17.182 89.261,17.232 88.759,18.206 87.468 C 18.650 86.881,19.033 86.400,19.058 86.400 C 19.082 86.400,19.415 86.490,19.797 86.599 C 21.099 86.973,21.724 86.416,20.500 85.973 C 19.612 85.652,19.627 85.514,20.680 84.319 L 21.544 83.338 22.461 83.569 C 23.551 83.844,25.400 83.875,25.400 83.619 C 25.400 83.426,23.741 82.802,23.214 82.797 C 22.314 82.788,22.348 82.457,23.388 81.135 L 24.420 79.821 27.560 82.341 C 29.287 83.726,30.739 84.893,30.787 84.934 M36.800 83.740 C 36.800 84.312,38.440 85.284,39.119 85.113 C 39.910 84.915,39.742 84.254,38.839 84.011 C 37.431 83.631,36.800 83.548,36.800 83.740" stroke="none" fill="currentColor" fill-rule="evenodd"/></svg>
