<svg xmlns="http://www.w3.org/2000/svg" viewBox="0 0 100 100" width="100" height="100"><path transform="translate(-300, 0)" d="M343.417 11.011 C 315.826 13.265,300.889 44.268,316.296 67.300 C 331.051 89.357,364.417 88.237,377.575 65.244 C 390.882 41.990,375.488 12.948,348.821 10.996 C 346.040 10.793,346.089 10.793,343.417 11.011 M353.322 12.678 C 382.932 18.955,391.453 57.087,367.300 75.225 C 346.134 91.121,315.321 78.390,311.509 52.174 C 308.023 28.199,329.745 7.680,353.322 12.678 M341.386 14.895 C 314.937 19.194,304.442 51.229,323.300 70.099 C 340.423 87.232,369.525 80.304,377.189 57.271 C 384.763 34.506,364.956 11.063,341.386 14.895 M350.449 15.894 C 353.467 16.296,355.800 16.947,355.800 17.387 C 355.800 17.576,355.571 18.398,355.291 19.215 C 354.580 21.289,352.756 28.372,352.859 28.661 C 352.976 28.992,355.022 22.613,355.721 19.737 L 356.295 17.373 356.994 17.504 C 358.386 17.766,358.678 18.242,358.208 19.480 C 357.861 20.391,358.351 20.223,358.730 19.300 C 359.113 18.370,359.389 18.205,359.777 18.672 C 359.947 18.877,359.928 19.124,359.701 19.666 C 359.142 21.005,359.636 21.084,360.318 19.765 C 360.479 19.454,360.700 19.200,360.809 19.200 C 361.343 19.200,367.600 23.546,367.600 23.917 C 367.600 23.969,366.301 25.425,364.712 27.152 C 360.668 31.549,361.405 31.336,366.130 26.742 C 368.356 24.578,369.586 24.004,367.718 26.001 C 367.213 26.541,366.800 27.032,366.800 27.091 C 366.800 27.375,367.214 27.123,368.115 26.290 L 369.100 25.379 369.770 26.140 C 374.245 31.223,376.915 37.434,377.607 44.371 C 377.869 47.005,377.785 47.596,377.146 47.609 C 376.901 47.614,376.430 47.749,376.100 47.909 C 375.504 48.198,375.507 48.199,376.550 48.129 C 377.944 48.036,377.888 48.291,376.450 48.577 C 374.616 48.943,374.440 49.252,376.150 49.103 L 377.600 48.976 377.600 49.872 C 377.600 51.102,377.449 51.401,376.829 51.396 C 375.729 51.389,370.600 52.081,370.600 52.237 C 370.600 52.443,373.854 52.431,375.700 52.218 C 377.490 52.011,377.419 51.921,376.988 53.849 C 376.147 57.610,374.658 61.126,372.500 64.445 L 371.366 66.189 370.390 65.695 C 369.853 65.423,369.314 65.200,369.193 65.200 C 368.855 65.200,369.757 66.359,370.205 66.502 C 372.139 67.115,364.253 73.542,358.500 76.041 C 355.760 77.231,355.685 77.232,355.196 76.090 C 354.727 74.997,353.655 73.400,353.390 73.400 C 352.830 73.400,353.617 75.174,354.716 76.391 L 355.414 77.164 354.757 77.373 C 351.969 78.261,351.107 78.279,350.919 77.452 C 350.705 76.506,349.524 73.400,349.378 73.400 C 349.234 73.400,349.852 76.469,350.198 77.473 C 350.485 78.308,350.404 78.348,348.091 78.505 C 343.515 78.817,335.072 77.303,335.500 76.247 C 335.702 75.750,336.156 73.118,336.059 73.006 C 335.924 72.849,335.692 73.343,335.212 74.806 C 334.666 76.471,334.716 76.463,332.346 75.275 C 327.912 73.053,324.150 69.962,321.219 66.133 L 320.337 64.982 321.019 64.379 C 321.740 63.741,321.596 63.687,320.276 64.100 C 319.776 64.257,319.549 63.932,318.016 60.857 C 316.545 57.905,316.480 58.115,319.200 57.008 C 322.634 55.610,325.329 54.311,324.947 54.237 C 324.472 54.146,319.991 55.699,318.363 56.519 C 316.649 57.382,316.462 57.376,316.215 56.450 C 313.619 46.732,314.655 38.680,319.547 30.550 C 320.641 28.732,320.521 28.766,321.965 29.856 C 323.852 31.279,326.400 32.790,326.400 32.486 C 326.400 32.313,325.800 31.816,323.350 29.958 C 320.842 28.056,320.945 28.326,322.170 26.860 C 324.411 24.180,327.961 21.268,331.224 19.432 C 332.597 18.660,332.756 18.653,332.928 19.350 C 333.437 21.415,336.171 27.581,336.187 26.700 C 336.199 26.087,334.512 21.211,333.803 19.806 C 333.457 19.120,333.202 18.535,333.237 18.505 C 333.369 18.391,334.585 17.800,334.687 17.800 C 334.746 17.800,335.079 18.363,335.428 19.050 C 336.169 20.512,336.390 20.331,335.825 18.724 C 335.375 17.441,335.302 17.528,337.346 16.917 C 341.411 15.703,346.204 15.329,350.449 15.894 M346.238 16.624 C 345.435 16.923,341.400 27.577,341.400 29.397 C 341.400 29.956,341.077 30.400,340.670 30.400 C 338.560 30.400,332.221 34.465,330.666 36.816 L 330.147 37.600 327.023 37.604 C 321.776 37.612,318.489 38.070,317.811 38.887 C 316.774 40.136,320.202 43.606,325.250 46.415 L 326.800 47.278 326.800 48.494 C 326.800 52.759,327.839 56.261,329.886 58.894 C 331.207 60.593,331.211 60.510,329.604 64.304 C 327.749 68.685,327.152 71.272,327.840 71.960 C 328.702 72.822,332.552 70.981,337.249 67.461 C 339.485 65.786,339.251 65.836,341.547 66.528 C 344.325 67.366,347.713 67.334,349.900 66.449 C 352.069 65.572,351.727 65.457,356.365 68.621 C 360.633 71.533,361.618 72.127,362.301 72.202 C 363.694 72.355,364.218 71.822,364.230 70.241 C 364.237 69.350,362.069 61.086,361.594 60.191 C 361.478 59.973,361.869 59.174,362.913 57.491 C 364.832 54.398,365.235 53.170,365.290 50.251 C 365.313 49.014,365.370 47.968,365.416 47.928 C 365.462 47.888,366.265 47.421,367.200 46.892 C 373.239 43.472,376.101 40.824,375.704 39.019 C 375.510 38.136,375.373 38.118,368.609 38.085 C 364.043 38.063,362.297 37.991,362.241 37.823 C 361.411 35.333,357.720 32.385,354.222 31.418 C 353.408 31.194,352.719 30.985,352.690 30.955 C 352.660 30.925,352.126 29.010,351.501 26.700 C 348.973 17.349,348.209 15.888,346.238 16.624 M347.576 18.238 C 348.510 19.151,348.742 19.699,349.313 22.344 C 350.549 28.069,352.755 35.668,353.611 37.150 L 353.987 37.800 352.700 37.800 C 351.086 37.800,351.297 38.214,349.715 31.957 C 348.295 26.344,347.794 24.838,347.081 24.040 L 346.599 23.500 346.233 23.931 C 345.808 24.431,345.266 26.064,344.816 28.198 L 344.500 29.700 343.445 29.879 C 342.052 30.115,342.033 30.461,343.687 25.559 C 344.491 23.177,345.350 20.411,345.597 19.414 C 346.115 17.315,346.437 17.124,347.576 18.238 M337.204 18.338 C 337.210 18.782,337.970 20.497,338.103 20.364 C 338.243 20.223,337.623 18.238,337.395 18.097 C 337.288 18.031,337.202 18.139,337.204 18.338 M347.480 27.800 C 347.766 28.845,348.000 29.764,348.000 29.842 C 348.000 30.024,345.356 29.799,345.134 29.598 C 345.042 29.515,345.143 29.099,345.356 28.674 C 345.570 28.248,345.904 27.405,346.099 26.800 C 346.696 24.947,346.701 24.950,347.480 27.800 M324.210 28.943 C 324.227 29.229,326.067 30.580,327.293 31.208 C 328.476 31.814,328.488 31.816,327.900 31.300 C 326.663 30.216,324.191 28.637,324.210 28.943 M369.900 30.359 C 368.185 31.275,366.815 32.200,367.172 32.200 C 367.510 32.200,370.742 30.521,371.400 30.002 C 372.228 29.351,371.433 29.540,369.900 30.359 M347.849 30.981 C 348.201 31.114,348.379 31.405,348.539 32.101 L 348.754 33.041 348.127 32.900 C 346.281 32.485,345.790 32.417,344.600 32.412 C 341.109 32.398,337.676 33.848,334.700 36.593 L 333.500 37.700 332.251 37.632 C 330.596 37.543,331.329 36.641,335.200 34.004 C 338.729 31.601,345.330 30.023,347.849 30.981 M355.800 32.925 C 358.836 34.525,360.150 35.962,361.997 39.700 C 364.052 43.857,364.149 44.512,362.818 45.191 C 361.772 45.724,361.800 45.736,361.800 44.742 C 361.800 40.642,358.108 35.764,354.491 35.085 C 353.870 34.969,353.000 33.190,353.000 32.035 C 353.000 31.723,354.309 32.139,355.800 32.925 M367.400 34.400 C 367.015 34.611,366.835 34.783,367.000 34.783 C 367.165 34.783,367.615 34.611,368.000 34.400 C 368.385 34.189,368.565 34.017,368.400 34.017 C 368.235 34.017,367.785 34.189,367.400 34.400 M339.345 36.272 L 338.882 37.645 336.841 37.672 C 335.718 37.688,334.803 37.655,334.806 37.600 C 334.817 37.407,337.261 35.724,338.474 35.074 C 339.921 34.298,339.983 34.384,339.345 36.272 M343.130 33.850 C 342.764 34.737,341.384 39.103,340.395 42.500 C 339.411 45.883,338.930 47.266,337.638 50.440 C 337.516 50.741,337.424 50.717,336.832 50.230 L 336.164 49.681 336.768 47.790 C 337.452 45.647,340.026 37.091,340.508 35.354 C 340.858 34.094,340.959 33.987,341.993 33.784 C 343.082 33.571,343.241 33.580,343.130 33.850 M353.136 45.500 C 354.994 50.936,355.021 50.487,352.750 51.881 C 351.733 52.506,349.667 53.872,348.159 54.917 L 345.418 56.816 342.010 54.190 C 337.922 51.041,338.276 51.589,339.098 49.682 C 339.472 48.812,340.198 46.660,340.710 44.900 C 341.222 43.140,341.717 41.606,341.811 41.491 C 341.922 41.355,343.688 41.285,346.841 41.291 L 351.700 41.300 353.136 45.500 M354.690 41.450 C 354.733 41.588,355.231 43.365,355.797 45.400 C 356.362 47.435,357.318 50.540,357.920 52.300 C 359.363 56.518,359.340 56.362,358.643 57.189 L 358.063 57.878 357.621 56.389 C 356.257 51.783,354.081 45.075,353.474 43.600 C 352.405 41.003,352.396 41.200,353.583 41.200 C 354.232 41.200,354.641 41.292,354.690 41.450 M338.508 38.739 C 338.109 40.329,337.892 40.578,337.067 40.394 C 336.054 40.167,325.029 40.053,324.450 40.264 C 322.731 40.888,323.878 42.995,326.659 44.321 C 327.341 44.646,327.342 44.646,327.147 45.573 C 326.894 46.784,326.960 46.769,325.858 45.858 C 325.331 45.422,323.955 44.418,322.800 43.627 C 316.239 39.136,316.920 38.601,329.200 38.602 C 332.665 38.602,336.040 38.523,336.700 38.427 C 338.698 38.136,338.661 38.130,338.508 38.739 M352.182 38.708 L 358.464 38.755 358.828 39.227 C 359.518 40.125,359.478 40.132,353.950 40.158 C 351.063 40.172,347.260 40.272,345.500 40.381 C 341.860 40.607,341.883 40.615,342.327 39.311 L 342.656 38.345 344.278 38.503 C 345.170 38.590,348.727 38.682,352.182 38.708 M374.800 39.538 C 374.800 40.929,372.349 42.751,364.088 47.504 C 361.454 49.019,359.104 50.387,358.863 50.543 C 358.441 50.819,358.003 50.084,358.002 49.100 C 358.002 48.990,358.834 48.475,359.851 47.956 C 364.547 45.559,369.800 42.334,370.281 41.553 C 370.901 40.544,367.650 39.951,364.455 40.491 C 363.634 40.629,363.000 40.073,363.000 39.213 C 363.000 39.079,364.717 38.987,367.950 38.950 C 370.673 38.918,373.328 38.872,373.850 38.846 L 374.800 38.800 374.800 39.538 M360.358 42.369 C 360.729 43.285,361.081 44.502,361.140 45.073 L 361.247 46.111 360.273 46.650 C 359.738 46.947,358.931 47.414,358.479 47.688 L 357.659 48.188 356.508 44.682 C 355.875 42.753,355.390 41.147,355.429 41.113 C 355.522 41.030,359.013 40.647,359.391 40.678 C 359.560 40.692,359.967 41.404,360.358 42.369 M328.386 41.130 C 328.459 41.194,327.641 43.768,327.484 43.968 C 327.168 44.372,324.512 41.662,324.713 41.139 C 324.824 40.849,328.054 40.841,328.386 41.130 M331.781 41.323 C 331.825 41.363,331.582 42.004,331.241 42.747 C 329.611 46.298,329.867 51.060,331.905 55.121 L 332.726 56.758 332.132 58.279 C 331.406 60.138,331.465 60.138,330.403 58.282 C 328.493 54.943,327.582 50.754,327.984 47.150 C 328.222 45.016,329.090 41.392,329.410 41.194 C 329.616 41.066,331.615 41.175,331.781 41.323 M369.304 41.438 C 369.374 41.507,368.816 41.900,368.065 42.311 C 367.314 42.723,366.222 43.326,365.638 43.651 C 365.054 43.977,364.550 44.211,364.518 44.171 C 364.376 43.997,363.799 41.364,363.876 41.239 C 363.979 41.071,369.126 41.259,369.304 41.438 M337.597 41.350 C 337.574 42.381,335.645 49.000,335.366 49.000 C 334.966 49.000,331.417 46.370,331.294 45.981 C 331.113 45.411,331.553 43.704,332.230 42.350 L 332.806 41.200 335.203 41.200 C 336.521 41.200,337.599 41.268,337.597 41.350 M336.137 50.952 C 338.577 52.827,341.502 54.972,342.637 55.718 C 343.771 56.465,344.744 57.111,344.797 57.152 C 344.932 57.257,343.978 57.958,343.547 58.071 C 343.132 58.180,342.303 57.630,337.700 54.193 C 333.653 51.171,332.065 50.132,331.702 50.272 C 331.324 50.417,331.200 49.968,331.200 48.459 C 331.200 47.441,331.255 47.195,331.450 47.348 C 331.588 47.456,333.696 49.078,336.137 50.952 M364.600 48.886 C 364.600 51.486,363.540 55.774,362.580 57.053 C 359.198 61.561,355.244 64.025,353.609 62.643 L 352.919 62.059 354.289 61.405 C 356.334 60.429,360.532 56.137,361.681 53.847 C 362.307 52.600,362.812 50.736,362.747 49.913 C 362.707 49.417,362.824 49.254,363.500 48.866 C 364.507 48.288,364.600 48.290,364.600 48.886 M361.800 50.406 C 361.800 51.099,360.815 53.757,360.172 54.800 L 359.740 55.500 359.245 53.622 C 358.835 52.067,358.797 51.717,359.025 51.587 C 359.176 51.500,359.789 51.063,360.386 50.615 C 361.686 49.639,361.800 49.623,361.800 50.406 M332.315 51.250 C 332.729 51.608,333.330 52.126,333.650 52.403 L 334.231 52.906 333.847 53.903 C 333.636 54.451,333.400 55.075,333.323 55.290 C 333.114 55.867,331.400 51.734,331.400 50.654 C 331.400 50.508,331.625 50.655,332.315 51.250 M355.292 52.236 C 355.717 53.666,355.731 53.631,354.490 54.280 C 353.104 55.004,349.296 57.488,346.796 59.299 C 342.093 62.706,342.376 62.572,340.936 62.081 C 340.117 61.802,339.669 61.400,340.177 61.400 C 340.677 61.400,350.880 54.356,353.223 52.394 C 354.950 50.948,354.911 50.951,355.292 52.236 M335.434 53.731 C 335.965 54.211,335.949 54.289,334.216 59.624 C 332.096 66.150,332.090 66.170,332.347 66.427 C 332.737 66.817,333.783 66.386,334.880 65.384 C 336.134 64.237,336.103 64.243,337.443 64.922 L 338.473 65.444 337.986 65.824 C 335.708 67.605,328.907 71.690,328.568 71.480 C 327.989 71.122,328.533 69.355,331.149 63.100 C 333.055 58.542,334.183 55.489,334.492 54.050 C 334.648 53.324,334.893 53.241,335.434 53.731 M356.561 55.953 C 356.924 56.914,357.262 57.835,357.311 58.000 C 357.512 58.670,352.882 61.564,351.974 61.337 C 351.503 61.218,349.200 59.299,349.200 59.025 C 349.200 58.946,349.889 58.391,350.731 57.791 C 351.572 57.191,353.035 56.146,353.981 55.470 C 354.926 54.793,355.745 54.232,355.800 54.223 C 355.855 54.214,356.197 54.993,356.561 55.953 M322.900 57.008 C 322.240 57.220,321.340 57.626,320.900 57.910 L 320.100 58.427 320.800 58.311 C 321.570 58.183,324.882 56.634,324.400 56.627 C 324.235 56.624,323.560 56.796,322.900 57.008 M372.000 57.378 C 372.000 57.686,373.568 58.200,374.504 58.200 C 375.785 58.200,375.610 57.901,374.109 57.524 C 372.660 57.160,372.000 57.115,372.000 57.378 M365.400 57.964 C 365.400 58.388,368.385 59.997,370.470 60.696 C 372.675 61.437,373.201 61.335,371.551 60.488 C 369.780 59.579,365.400 57.782,365.400 57.964 M340.551 57.299 C 342.660 58.601,342.784 58.731,342.272 59.100 C 342.067 59.248,341.262 59.821,340.482 60.375 L 339.064 61.382 337.882 60.812 C 337.232 60.499,336.414 59.986,336.065 59.671 L 335.430 59.100 336.005 56.900 C 336.322 55.690,336.585 54.675,336.590 54.644 C 336.596 54.612,337.072 54.940,337.650 55.371 C 338.228 55.803,339.533 56.670,340.551 57.299 M348.953 60.179 C 349.756 61.265,355.574 65.386,358.145 66.689 C 358.940 67.092,359.643 67.507,359.707 67.611 C 359.914 67.947,360.778 67.814,360.993 67.413 C 361.451 66.558,361.003 63.818,360.176 62.416 C 359.781 61.744,359.780 61.722,360.149 61.228 C 360.759 60.411,360.931 60.513,361.189 61.842 C 361.324 62.534,361.793 64.210,362.233 65.567 C 363.390 69.139,363.517 71.200,362.579 71.200 C 361.871 71.200,359.439 69.877,357.977 68.695 C 357.207 68.073,354.445 66.132,351.839 64.382 C 346.427 60.748,346.467 60.786,347.300 60.105 C 348.086 59.462,348.434 59.477,348.953 60.179 M336.601 61.114 C 340.160 63.417,343.931 64.335,347.160 63.684 L 348.729 63.368 349.856 64.134 C 350.476 64.555,350.959 64.986,350.928 65.091 C 350.692 65.905,345.027 66.335,342.527 65.728 C 340.684 65.281,335.598 63.273,334.902 62.718 L 334.344 62.273 334.688 61.236 C 335.101 59.993,334.889 60.007,336.601 61.114 M346.916 61.924 C 348.081 62.878,348.037 63.000,346.528 63.000 C 345.051 63.000,343.399 62.800,343.403 62.623 C 343.406 62.489,345.594 61.239,345.866 61.215 C 345.958 61.207,346.430 61.526,346.916 61.924 M359.869 63.856 C 360.435 66.518,360.216 67.413,359.216 66.517 C 359.042 66.362,358.116 65.701,357.158 65.048 L 355.415 63.861 356.558 63.543 C 357.186 63.368,358.060 62.954,358.500 62.624 C 359.460 61.905,359.453 61.898,359.869 63.856 M334.691 63.432 C 334.971 63.560,335.200 63.770,335.200 63.898 C 335.200 64.154,333.431 65.498,333.286 65.353 C 333.197 65.264,333.994 63.200,334.117 63.200 C 334.152 63.200,334.410 63.304,334.691 63.432 M337.892 71.008 C 337.792 71.169,337.685 72.560,337.655 74.100 C 337.592 77.312,337.845 77.248,338.175 73.969 C 338.389 71.840,338.255 70.430,337.892 71.008 M349.400 69.066 C 349.400 69.661,350.196 71.629,351.321 73.814 C 353.081 77.233,353.186 76.885,351.596 72.900 C 349.852 68.527,349.400 67.739,349.400 69.066" stroke="none" fill="currentColor" fill-rule="evenodd"/></svg>
