<svg xmlns="http://www.w3.org/2000/svg" viewBox="0 0 100 100" width="100" height="100"><path transform="translate(-100, 0)" d="M116.614 6.816 C 114.844 7.167,110.400 11.452,110.400 12.808 C 110.400 13.262,112.713 16.713,117.499 23.400 C 119.350 25.985,121.632 29.180,122.572 30.500 C 128.225 38.440,131.819 42.967,139.098 51.313 C 145.397 58.536,149.200 63.270,149.200 63.889 C 149.200 63.950,148.863 64.002,148.450 64.004 C 144.431 64.028,145.272 66.543,150.237 69.354 C 155.042 72.074,164.043 80.985,171.739 90.640 C 172.765 91.927,173.803 93.120,174.046 93.290 C 175.469 94.287,178.844 92.657,179.827 90.500 C 180.680 88.626,179.738 84.397,178.621 85.087 C 178.513 85.154,178.141 84.796,177.794 84.291 C 177.447 83.787,176.170 82.053,174.956 80.437 C 173.742 78.822,170.906 74.710,168.653 71.300 C 160.924 59.597,155.572 51.661,152.197 46.900 C 148.541 41.743,145.696 37.204,145.225 35.775 C 144.759 34.364,143.720 33.892,142.375 34.481 C 142.123 34.591,141.892 34.337,141.354 33.358 C 140.402 31.625,133.973 22.470,126.356 12.000 C 125.276 10.515,124.101 8.899,123.746 8.409 C 122.690 6.953,121.827 6.617,119.700 6.833 C 119.480 6.855,118.895 6.821,118.400 6.756 C 117.905 6.692,117.101 6.719,116.614 6.816 M121.263 7.833 C 121.791 8.114,121.662 7.948,124.436 11.900 C 125.671 13.660,128.221 17.260,130.103 19.900 C 131.985 22.540,134.050 25.465,134.693 26.400 C 136.201 28.593,140.156 33.839,141.174 34.998 C 141.952 35.882,141.969 35.890,142.374 35.524 C 142.927 35.023,143.713 35.224,143.885 35.910 C 144.168 37.038,146.260 41.009,147.515 42.800 C 151.682 48.748,160.458 61.768,167.333 72.204 C 171.187 78.053,174.240 82.244,176.634 84.969 C 178.933 87.586,178.902 87.537,178.881 88.517 C 178.857 89.630,178.669 89.827,178.193 89.240 C 177.727 88.666,175.965 87.200,175.740 87.200 C 175.491 87.200,176.340 88.373,177.358 89.435 C 178.291 90.407,178.352 90.798,177.632 91.183 C 177.297 91.362,177.134 91.257,176.486 90.446 C 175.520 89.237,171.993 85.740,171.867 85.866 C 171.643 86.090,174.424 89.800,175.781 91.087 C 176.637 91.900,176.267 92.600,174.981 92.600 C 174.893 92.600,173.990 91.510,172.975 90.178 C 165.919 80.920,156.795 71.633,151.318 68.133 C 147.798 65.884,147.675 65.700,149.696 65.700 C 152.797 65.700,151.046 62.835,140.099 50.000 C 131.503 39.922,130.464 38.593,121.489 26.200 C 111.682 12.657,111.820 12.884,112.823 11.900 L 113.436 11.300 114.268 12.293 C 119.676 18.746,121.771 20.576,122.401 19.399 C 122.771 18.707,120.690 14.467,119.412 13.311 C 118.791 12.749,118.909 13.119,120.483 16.650 C 121.241 18.352,120.905 18.107,117.887 14.750 C 116.379 13.072,114.887 11.468,114.573 11.185 C 113.850 10.536,113.856 10.416,114.650 9.661 C 115.400 8.948,116.609 8.313,117.562 8.132 C 118.327 7.985,118.214 7.887,120.900 11.056 C 123.517 14.144,123.652 13.627,121.190 9.944 C 120.036 8.216,119.876 7.879,120.162 7.764 C 120.653 7.567,120.778 7.574,121.263 7.833 M125.133 17.133 C 124.837 17.429,125.077 17.850,126.837 20.125 C 127.848 21.431,129.155 23.348,129.742 24.385 C 131.435 27.373,133.982 30.755,134.152 30.243 C 134.296 29.813,132.186 26.082,130.509 23.800 C 129.579 22.535,128.484 20.842,128.075 20.037 C 127.183 18.281,125.574 16.693,125.133 17.133 M125.200 22.073 C 125.200 22.560,127.282 25.002,128.060 25.428 C 128.655 25.753,127.594 23.862,126.557 22.750 C 125.670 21.797,125.200 21.563,125.200 22.073 M123.200 22.923 C 123.200 23.648,125.994 26.742,127.773 27.989 C 128.921 28.793,127.573 26.841,125.107 24.130 C 123.740 22.626,123.200 22.284,123.200 22.923 M130.495 29.609 C 130.320 29.892,130.937 30.800,131.305 30.800 C 131.663 30.800,131.702 29.982,131.360 29.640 C 131.064 29.344,130.667 29.330,130.495 29.609 M127.093 30.411 C 126.836 30.827,127.214 31.583,128.141 32.510 C 129.229 33.597,129.433 33.443,128.729 32.066 C 128.010 30.659,127.352 29.993,127.093 30.411 M131.800 35.608 C 131.800 36.350,132.925 37.856,137.794 43.630 C 139.496 45.649,141.986 48.605,143.326 50.200 C 147.063 54.645,147.999 55.381,148.157 53.998 C 148.247 53.205,144.781 47.600,144.199 47.600 C 144.063 47.600,144.062 47.714,144.199 47.950 C 144.509 48.489,145.592 51.000,145.514 51.000 C 145.475 51.000,144.602 49.988,143.573 48.750 C 133.819 37.021,131.800 34.767,131.800 35.608 M134.200 33.463 C 134.200 34.131,135.026 35.287,135.557 35.364 C 136.163 35.451,136.136 34.917,135.492 34.072 C 134.754 33.104,134.200 32.843,134.200 33.463 M137.678 34.285 C 137.535 34.659,138.526 36.058,138.856 35.948 C 139.247 35.818,139.218 35.486,138.755 34.802 C 138.223 34.018,137.849 33.838,137.678 34.285 M137.070 37.505 C 136.995 37.702,137.325 38.180,138.003 38.855 C 138.580 39.430,139.903 40.913,140.942 42.150 C 143.007 44.608,143.578 45.003,142.623 43.310 C 140.352 39.287,137.522 36.328,137.070 37.505 M144.400 43.611 C 144.400 44.078,147.779 48.635,148.678 49.382 C 149.130 49.757,149.084 49.553,148.418 48.244 C 147.073 45.599,144.400 42.517,144.400 43.611 M153.694 54.948 C 153.912 55.815,159.411 63.000,159.857 63.000 C 160.214 63.000,158.307 60.004,155.750 56.550 C 154.168 54.413,153.412 53.824,153.694 54.948 M153.445 60.911 C 152.573 61.522,153.085 62.902,154.772 64.485 C 155.712 65.368,155.735 64.986,154.842 63.331 C 154.047 61.856,154.022 61.400,154.740 61.400 C 155.130 61.400,155.053 61.043,154.613 60.807 C 154.100 60.532,153.969 60.544,153.445 60.911 M158.800 65.964 C 158.800 66.401,159.404 67.212,163.262 71.957 C 166.436 75.861,166.571 75.998,166.094 74.850 C 164.760 71.639,158.800 64.378,158.800 65.964 M155.803 67.136 C 155.806 67.614,159.861 72.655,161.900 74.717 C 163.472 76.307,164.626 76.986,165.308 76.725 C 165.803 76.535,165.664 75.978,165.150 76.089 C 164.773 76.171,164.297 75.716,162.200 73.271 C 156.530 66.658,155.794 65.952,155.803 67.136" stroke="none" fill="currentColor" fill-rule="evenodd"/></svg>
