<svg xmlns="http://www.w3.org/2000/svg" viewBox="0 0 100 100" width="100" height="100"><path transform="translate(-200, 0)" d="M244.751 11.201 C 229.732 12.038,227.095 13.941,227.457 23.682 C 227.934 36.495,234.388 45.675,244.566 48.013 C 247.545 48.698,247.432 48.524,247.814 53.000 C 248.190 57.417,247.683 63.883,246.689 67.326 C 245.096 72.846,240.763 78.349,237.122 79.479 C 229.736 81.770,231.237 87.320,239.800 89.379 C 248.978 91.587,263.259 90.047,266.360 86.515 C 268.996 83.513,267.058 80.865,261.200 79.467 C 258.810 78.896,258.530 78.694,256.267 75.900 C 253.563 72.562,253.018 69.780,253.006 59.234 C 252.995 49.892,253.233 48.842,255.463 48.404 C 264.265 46.675,269.911 40.767,271.903 31.201 C 272.656 27.584,273.222 19.533,272.859 17.605 C 272.071 13.421,258.874 10.415,244.751 11.201 M250.839 12.404 C 258.183 12.774,265.889 14.431,270.073 16.540 L 271.046 17.030 270.960 18.216 C 270.776 20.760,268.001 22.962,262.500 24.928 C 260.541 25.628,261.139 25.831,263.571 25.292 C 266.492 24.644,268.889 23.605,270.567 22.258 L 271.234 21.723 271.104 24.111 C 270.640 32.647,269.430 36.889,266.355 40.755 C 259.836 48.954,243.246 49.449,235.770 41.668 C 231.372 37.090,228.677 30.230,228.831 24.005 C 228.916 20.560,229.019 20.402,230.336 21.686 C 232.696 23.985,236.368 24.988,242.450 24.996 C 247.184 25.002,246.637 24.700,240.283 23.800 C 233.243 22.802,229.800 20.899,229.800 18.004 C 229.800 15.269,232.718 13.871,240.270 12.987 C 242.266 12.753,244.260 12.490,244.700 12.403 C 245.841 12.176,246.307 12.176,250.839 12.404 M245.600 13.937 C 239.178 14.414,232.189 16.084,232.033 17.180 C 231.517 20.793,236.758 22.730,248.308 23.196 C 260.929 23.704,267.725 22.347,268.140 19.234 C 268.567 16.034,256.273 13.144,245.600 13.937 M256.210 16.109 C 257.469 16.284,260.001 16.737,261.835 17.114 C 263.670 17.491,265.343 17.800,265.554 17.800 C 266.812 17.800,266.915 19.456,265.700 20.141 C 263.152 21.576,259.391 21.868,249.200 21.422 C 239.891 21.014,235.363 20.102,233.876 18.335 C 233.244 17.584,233.277 17.564,236.000 17.027 C 243.052 15.634,250.397 15.301,256.210 16.109 M250.600 25.822 C 250.123 26.032,250.118 26.050,250.500 26.207 C 251.489 26.615,254.107 26.337,253.398 25.899 C 253.003 25.654,251.099 25.602,250.600 25.822 M262.033 27.012 C 261.445 27.248,261.567 27.681,262.245 27.761 C 262.848 27.833,264.200 27.314,264.200 27.010 C 264.200 26.753,262.676 26.755,262.033 27.012 M266.700 27.613 C 264.997 28.285,262.171 28.978,260.570 29.118 C 258.691 29.282,258.357 29.443,258.858 29.943 C 259.702 30.787,263.818 30.266,266.664 28.956 C 269.225 27.777,269.256 26.605,266.700 27.613 M264.200 31.280 C 263.166 31.581,260.363 32.308,259.550 32.487 C 258.741 32.664,258.879 33.121,259.813 33.358 C 260.796 33.607,263.648 32.925,265.236 32.061 C 266.766 31.229,266.100 30.727,264.200 31.280 M260.495 35.175 C 258.494 35.668,258.089 36.016,259.079 36.392 C 260.045 36.759,263.400 35.753,263.400 35.095 C 263.400 34.699,262.308 34.729,260.495 35.175 M258.226 38.322 C 257.800 38.622,257.786 38.676,258.088 38.845 C 258.904 39.302,261.134 38.905,260.946 38.336 C 260.817 37.944,258.776 37.933,258.226 38.322 M260.100 40.508 C 259.330 40.653,257.890 40.835,256.900 40.913 C 254.657 41.088,254.012 41.468,255.109 41.968 C 256.741 42.711,261.987 41.556,261.998 40.450 C 262.000 40.159,261.948 40.161,260.100 40.508 M257.547 43.319 C 257.482 43.385,256.770 43.497,255.966 43.569 C 254.237 43.724,253.851 44.188,255.107 44.602 C 256.210 44.966,258.600 44.142,258.600 43.397 C 258.600 43.185,257.745 43.122,257.547 43.319 M251.908 50.050 C 251.501 53.592,251.410 55.288,251.406 59.500 C 251.392 72.084,252.624 75.466,259.201 80.905 C 261.138 82.508,261.315 82.916,260.447 83.784 C 258.878 85.353,250.632 86.306,245.637 85.496 C 241.526 84.830,235.891 82.342,237.368 81.845 C 239.834 81.015,245.170 75.005,247.200 70.770 C 249.045 66.919,250.276 55.374,249.283 51.223 C 249.135 50.605,249.011 49.808,249.007 49.450 L 249.000 48.800 250.526 48.800 L 252.052 48.800 251.908 50.050 M249.710 73.584 C 249.537 73.864,250.171 74.400,250.676 74.400 C 251.258 74.400,251.901 73.925,251.719 73.630 C 251.550 73.357,249.874 73.318,249.710 73.584 M248.650 75.563 C 247.872 75.638,247.801 76.045,248.509 76.368 C 249.665 76.895,253.200 76.460,253.200 75.791 C 253.200 75.408,251.262 75.311,248.650 75.563 M249.300 78.309 C 248.420 78.452,247.678 78.577,247.650 78.585 C 247.402 78.660,247.698 79.206,248.050 79.323 C 249.356 79.757,254.035 79.009,254.163 78.346 C 254.246 77.914,251.835 77.895,249.300 78.309 M251.725 80.894 C 250.761 81.238,250.511 81.479,250.676 81.909 C 250.915 82.533,254.421 81.645,254.565 80.924 C 254.648 80.504,252.870 80.486,251.725 80.894 M262.817 81.221 C 266.558 82.447,267.284 84.260,264.879 86.377 C 262.605 88.378,249.271 89.643,242.600 88.489 C 236.904 87.505,232.723 85.052,233.461 83.128 C 233.723 82.447,236.096 81.128,236.156 81.630 C 236.281 82.677,236.427 82.980,237.138 83.671 C 241.600 88.005,255.953 88.631,261.263 84.724 C 262.517 83.801,262.827 81.952,261.850 81.223 C 261.156 80.705,261.244 80.705,262.817 81.221 M253.435 82.705 C 252.572 83.079,252.629 83.673,253.537 83.762 C 254.288 83.835,255.800 83.123,255.800 82.696 C 255.800 82.304,254.345 82.309,253.435 82.705" stroke="none" fill="currentColor" fill-rule="evenodd"/></svg>
